<?xml version="1.0" encoding="UTF-8"?>
<svg data-name="Layer 1" version="1.1" viewBox="0 0 423.84 454.46" xmlns="http://www.w3.org/2000/svg">
   <defs>
      <linearGradient id="d" x1="7.7485" x2="18.711" y1="8.2848" y2="34.761" gradientUnits="userSpaceOnUse">
         <stop stop-color="#0057FF" offset="0" />
         <stop stop-color="#00A3FF" offset="1" />
      </linearGradient>
      <linearGradient id="e" x1="12.891" x2="33.285" y1="8.472" y2="3.0849" gradientUnits="userSpaceOnUse">
         <stop stop-color="#0283FF" offset="0" />
         <stop stop-color="#01C2FF" offset="1" />
      </linearGradient>
      <linearGradient id="f" x1="5.8817" x2="34.444" y1="33.427" y2="-4.4723" gradientUnits="userSpaceOnUse">
         <stop stop-color="#0157FF" offset="0" />
         <stop stop-color="#0ff" offset="1" />
      </linearGradient>
   </defs>
   <path
      d="m86.372 425.81a3.6132 3.6132 0 0 1-2.6187-6.2626c0.0911-0.36213 0.15647-0.62217 0.24758-0.9843q-0.0489-0.11821-0.0984-0.23627a9.7031 9.7031 0 0 0-17.898 0.0665c-2.9274 7.0505-6.6545 14.113-7.5722 21.568a28.705 28.705 0 0 0 0.5039 9.8724 115.09 115.09 0 0 1-10.469-47.799 111.08 111.08 0 0 1 0.689-12.392q0.5708-5.0597 1.5838-10.047a116.42 116.42 0 0 1 23.087-49.342 30.983 30.983 0 0 0 12.886-13.369 23.633 23.633 0 0 0 2.1493-6.4582c-0.62729 0.0823-1.2649 0.1337-1.8922 0.17479-0.19543 0.0102-0.40108 0.0205-0.59651 0.0309l-0.0737 3e-3a3.5799 3.5799 0 0 1-2.9401-5.8322q0.40628-0.5 0.81305-0.99948c0.4114-0.51423 0.833-1.0181 1.2443-1.5323a1.7819 1.7819 0 0 0 0.13369-0.15432c0.47313-0.58619 0.94609-1.1621 1.4192-1.7482a10.352 10.352 0 0 0-3.3937-3.2804c-4.7408-2.7766-11.281-0.85357-14.706 3.4348-3.4348 4.2882-4.0826 10.304-2.8898 15.662a41.485 41.485 0 0 0 5.7384 12.793c-0.25715 0.32911-0.52454 0.64791-0.78161 0.977a117.17 117.17 0 0 0-12.23 19.375 48.709 48.709 0 0 0-2.908-22.624c-2.7835-6.7148-8.0006-12.37-12.595-18.175-5.5186-6.9726-16.835-3.9296-17.807 4.9093q-0.0141 0.12837-0.0276 0.25666 1.0236 0.57749 2.004 1.2258a4.9011 4.9011 0 0 1-1.976 8.9191l-0.0999 0.0154a48.767 48.767 0 0 0 1.2854 7.2912 50.21 50.21 0 0 0 25 31.468c0.40108 0.20566 0.79193 0.41131 1.193 0.60674a119.6 119.6 0 0 0-6.4377 30.296 113.43 113.43 0 0 0 0.0823 18.315l-0.0309-0.216a29.974 29.974 0 0 0-10.232-17.308c-7.8744-6.4685-18.999-8.8505-27.494-14.05a5.6253 5.6253 0 0 0-8.6157 5.4725q0.0171 0.11352 0.0347 0.227a32.925 32.925 0 0 1 3.6918 1.779q1.0236 0.57761 2.004 1.2259a4.9012 4.9012 0 0 1-1.976 8.9192l-0.1 0.0153c-0.072 0.0103-0.13369 0.0206-0.20557 0.031a48.808 48.808 0 0 0 8.9777 14.058 50.254 50.254 0 0 0 36.446 15.991h0.0103a119.56 119.56 0 0 0 8.0317 23.447h28.692c0.10291-0.3188 0.19543-0.64792 0.288-0.96672a32.599 32.599 0 0 1-7.9392-0.473c2.1288-2.6121 4.2575-5.2448 6.3862-7.8569a1.7814 1.7814 0 0 0 0.1337-0.15424c1.0798-1.3368 2.1699-2.6635 3.2496-4.0003l5.8e-4 -2e-3a47.75 47.75 0 0 0-1.3992-12.164z"
      fill="#f2f2f2" />
   <path
      d="m337.47 425.81a3.6132 3.6132 0 0 0 2.6187-6.2626c-0.0911-0.36213-0.15647-0.62217-0.24758-0.9843q0.0489-0.11821 0.0984-0.23627a9.7031 9.7031 0 0 1 17.898 0.0665c2.9274 7.0505 6.6545 14.113 7.5722 21.568a28.705 28.705 0 0 1-0.5039 9.8724 115.09 115.09 0 0 0 10.469-47.799 111.08 111.08 0 0 0-0.689-12.392q-0.57079-5.0597-1.5838-10.047a116.42 116.42 0 0 0-23.087-49.342 30.983 30.983 0 0 1-12.886-13.369 23.633 23.633 0 0 1-2.1493-6.4582c0.62729 0.0823 1.2649 0.1337 1.8922 0.17479 0.19543 0.0102 0.40108 0.0205 0.59651 0.0309l0.0737 3e-3a3.5799 3.5799 0 0 0 2.9401-5.8322q-0.40628-0.5-0.813-0.99948c-0.4114-0.51423-0.833-1.0181-1.2443-1.5323a1.7819 1.7819 0 0 1-0.13369-0.15432c-0.47313-0.58619-0.94609-1.1621-1.4192-1.7482a10.352 10.352 0 0 1 3.3937-3.2804c4.7408-2.7766 11.281-0.85357 14.706 3.4348 3.4348 4.2882 4.0826 10.304 2.8898 15.662a41.485 41.485 0 0 1-5.7384 12.793c0.25715 0.32911 0.52454 0.64791 0.78161 0.977a117.17 117.17 0 0 1 12.23 19.375 48.709 48.709 0 0 1 2.908-22.624c2.7835-6.7148 8.0006-12.37 12.595-18.175 5.5186-6.9726 16.835-3.9296 17.807 4.9093q0.0141 0.12837 0.0276 0.25666-1.0236 0.57749-2.004 1.2258a4.9011 4.9011 0 0 0 1.976 8.9191l0.0999 0.0154a48.767 48.767 0 0 1-1.2854 7.2912 50.21 50.21 0 0 1-25 31.468c-0.40108 0.20566-0.79193 0.41131-1.193 0.60674a119.6 119.6 0 0 1 6.4377 30.296 113.43 113.43 0 0 1-0.0823 18.315l0.0309-0.216a29.974 29.974 0 0 1 10.232-17.308c7.8744-6.4685 18.999-8.8505 27.494-14.05a5.6253 5.6253 0 0 1 8.6157 5.4725q-0.0171 0.11352-0.0347 0.227a32.925 32.925 0 0 0-3.6918 1.779q-1.0236 0.57761-2.004 1.2259a4.9012 4.9012 0 0 0 1.976 8.9192l0.1 0.0153c0.072 0.0103 0.13369 0.0206 0.20557 0.031a48.808 48.808 0 0 1-8.9777 14.058 50.254 50.254 0 0 1-36.446 15.991h-0.0103a119.56 119.56 0 0 1-8.0317 23.447h-28.692c-0.10291-0.3188-0.19543-0.64792-0.288-0.96672a32.599 32.599 0 0 0 7.9392-0.473c-2.1288-2.6121-4.2575-5.2448-6.3862-7.8569a1.7814 1.7814 0 0 1-0.1337-0.15424c-1.0798-1.3368-2.1699-2.6635-3.2496-4.0003l-5.8e-4 -2e-3a47.75 47.75 0 0 1 1.3992-12.164z"
      fill="#f2f2f2" />
   <polygon transform="translate(-.017521 -78.348)" points="121.69 487.44 109.31 482.17 95.525 514.52 103.91 518.1"
      fill="#a0616a" />
   <polygon transform="translate(-.017521 -78.348)" points="178.29 487.29 164.84 487.29 164.84 522.46 173.96 522.46"
      fill="#a0616a" />
   <path
      d="m164.5 453.62 28.037-1e-3v-0.35457a10.914 10.914 0 0 0-10.913-10.913h-6.8e-4l-5.1214-3.8853-9.5554 3.8859-2.4475 9e-5z"
      fill="#2f2e41" />
   <path
      d="m90.412 442.26 25.793 10.992 0.139-0.32619a10.914 10.914 0 0 0-5.7606-14.318l-6.2e-4 -2.6e-4 -3.188-5.5822-10.314-0.17158-2.2516-0.95951z"
      fill="#2f2e41" />
   <path
      d="m173.76 235.97 13.857 84.375-3.771 12.573 4.9484 8.9048-7.2668 78.204 2.9498 6.4942-8.2416 5.0828h-16.771l-0.89-70.799-4.1426-10.395v-5.7288l-8.4332-43.171-0.89958 53.613-2.6924 5.1932-24.119 63.138h-18.805l1.4544-11.204c-3.3692-1.7058 5.0585-6.6914 5.8684-10.38l-2.769-6.2303 2.769-11.768 6.378-32.729-6.5166-38.806 2.334-24.978-1.2153-8.5443 0.0922-2.7634s3.2144-1.2401 0.14469-4.3358c-4.2498-24.091 0.97842-29.319 0.97842-29.319l20.924-12.246z"
      fill="#2f2e41" />
   <circle cx="140.02" cy="105.85" r="19.004" fill="#a0616a" data-name="ab6171fa-7d69-4734-b81c-8dff60f9761b" />
   <path
      d="m116.19 69.402a7.4784 7.4784 0 0 1-8.1589 8.058l-11.042 24.173-7.3279-11.706 11.609-21.161a7.519 7.519 0 0 1 14.92 0.63519z"
      fill="#a0616a" />
   <path
      d="m175.01 237.79a1.7861 1.7861 0 0 1-2.15 1.9901c-9.95-2.15-51.01 3.0099-64.61 16.87a1.7962 1.7962 0 0 1-3.08-1.39c0.24-2.98 4.57-16.46 4.57-16.46l1.32-8.4a1.947 1.947 0 0 0 0-0.59l-1.21-6.95a1.8213 1.8213 0 0 0-0.5-0.96l-0.41-0.41a1.7986 1.7986 0 0 1 0-2.54l1.59-1.58a1.8408 1.8408 0 0 0 0.51-1.51l-2.11-15.6c-0.01-0.03-0.01-0.07-0.02-0.1l-9.32-49.22a1.7984 1.7984 0 0 1 0.99-1.95l15.84-7.57a1.767 1.767 0 0 0 0.45-0.3l11.06-10.26a1.8538 1.8538 0 0 1 1.2-0.48l19.88-0.15a1.81 1.81 0 0 1 1.43 0.7l6.05 7.87a1.7941 1.7941 0 0 0 0.84 0.6l4.1 1.39 11.84 4.02 0.55 0.19a1.784 1.784 0 0 1 1.2 1.62 0.85946 0.85946 0 0 1 0.01 0.16l-2.96 61.26a1.9404 1.9404 0 0 0 0.14 0.79l1.42 3.31a1.805 1.805 0 0 1-0.41 2c-0.42 0.4-0.9 0.86-1.2 1.2-0.61 0.67 0.69 5.98 0.89 6.75a1.4143 1.4143 0 0 1 0.04 0.2l0.73 5.4901a1.784 1.784 0 0 1-0.74 1.69 1.7892 1.7892 0 0 0-0.32 2.62l1.6 1.89a1.9083 1.9083 0 0 1 0.41 0.93z"
      fill="#6c63ff" />
   <path d="m135.16 123.93q-0.12178-0.26813-0.24289-0.5381c0.0311 1e-3 0.0619 5e-3 0.093 6e-3z" fill="#2f2e41" />
   <path
      d="m202.82 231.54a7.4784 7.4784 0 0 0-8.1382-8.079l-10.98-24.202-7.3579 11.687 11.555 21.191a7.519 7.519 0 0 0 14.921-0.59687z"
      fill="#a0616a" />
   <path
      d="m187.94 206.13-0.61005 1.14-6.43 12.02-0.9 1.68-6.28-8.65-20.61-28.38 2.93-17.8 5.39-22.3 7.99-0.46 5.6 2.29a11.499 11.499 0 0 1 6.6399 12.723l-4.9599 25.397z"
      fill="#6c63ff" />
   <path
      d="m156.56 88.752a10.695 10.695 0 0 0-1.8602-4.373 5.2296 5.2296 0 0 0-7.7914-0.23681 5.7345 5.7345 0 0 0 0.25219-2.6901 14.571 14.571 0 0 1-4.3988 1.3083l3.3723-3.5211-16.787 1.5423c-1.7325 0.15918-3.6061 0.38462-4.8783 1.7008-1.2722 1.3161-1.3428 4.1254 0.26519 4.8593-3.1686-1.1933-6.8072 0.53876-8.8977 3.4407-2.0905 2.9019-2.8603 6.7297-3.0016 10.443-0.1831 4.8153 0.71432 9.9417 3.6535 13.487 1.922 2.3182 4.5427 3.7638 6.6697 5.8494l0.0637 0.0629a18.908 18.908 0 0 0 18.303 5.0986c0.36268-0.0997 0.72281-0.21035 1.0847-0.31354 1.809 0.8182 4.062-0.30042 5.2039-2.1196 1.2177-1.9399 1.4582-4.4221 1.5097-6.7864a55.635 55.635 0 0 0-0.56951-9.2448c-0.50342-3.4463-0.95725-7.8599 1.7722-9.591 2.125-1.3477 4.7653-0.0178 6.9046 1.3018a35.53 35.53 0 0 0-0.8704-10.218z"
      fill="#2f2e41" />
   <path
      d="m116.04 176.73-12.663-0.914-21.977-26.907-16.314-23.383 3.7571-9.5056 17.759-25.442-0.18391-2.1978 1.9652-0.35426 0.0348-2.6457 1.6311 0.25915 4.3689-6.2592 10 8-5.6554 16.613-0.34455 3.3866-1.9565 3.373 0.95653 4.627-3.7397 3.5487-1.8006 5.2894c7.768 5.1087 15.135 12.752 22.317 22.317z"
      fill="#6c63ff" />
   <polygon transform="translate(-.017521 -78.348)"
      points="288.07 313.77 251.09 309.38 247.62 284.34 252.05 284.39 288.64 284.34 287.26 297.07" fill="#ffb6b6" />
   <path
      d="m256.42 164.15 8.7863-5.2718 4.2126-6.501 13 2 15.892 10.653-0.15567 24.161-9.8532 25.059-41.296-5.2718-1.569-8.839s-11.422-15.341 0.87863-24.128z"
      fill="#6c63ff" />
   <path
      d="m203.69 92.412a6.7071 6.7071 0 0 0 4.3351 9.3262l28.607 53.976 11.547-8.9119-31.75-50.255a6.7434 6.7434 0 0 0-12.738-4.136z"
      fill="#ffb6b6" />
   <path
      d="m250.61 173.95s-2.6509 2.351-6.4207-4.1408c-3.018-5.1972-18.069-28.469-20.201-36.537a5.269 5.269 0 0 1-5.2134-3.8142l16.168-6.2752c3.5145 1.7573 2.5391 4.1928 1.6479 5.4529l6.0212 9.0318 20.028 22.476-10.084 12.14z"
      fill="#6c63ff" />
   <polygon transform="translate(-.017521 -78.348)" points="295.88 484.29 307.81 484.29 307.81 515.48 299.73 515.48"
      fill="#ffb6b6" />
   <path
      d="m312.06 451.13h-5.7975l-1.0348-5.4735-2.6503 5.4735h-15.376a3.4564 3.4564 0 0 1-1.9641-6.3008l12.279-8.4804v-5.5335l12.915 0.77088z"
      fill="#2f2e41" />
   <polygon transform="translate(-.017521 -78.348)" points="250.47 484.29 262.4 484.29 262.4 515.48 254.32 515.48"
      fill="#ffb6b6" />
   <path
      d="m266.65 451.13h-5.7975l-1.0348-5.4735-2.6503 5.4735h-15.376a3.4565 3.4565 0 0 1-1.9641-6.3008l12.279-8.4804v-5.5335l12.915 0.77088z"
      fill="#2f2e41" />
   <path
      d="m311.28 410.23h-0.0879l-1.5547-50.7a13.258 13.258 0 0 0-0.17395-12.528l-0.22259-0.40294 0.57714-2.6753a17.041 17.041 0 0 0-0.97381-10.256l-1.4504-47.294c5.1818-33.582-19.513-55.483-19.513-55.483h-36.993l-2.6437 9.0832-2.8274 2.4024 1.0704 3.6345-3.0704 4.3655-0.47085 7.8013c-5.2504 51.152-4.2977 101 4.0339 149.29l-0.22713 0.11486a1.9193 1.9193 0 0 0-0.7837 2.5306c0.38494 1.1154 1.3601 1.7907 2.1779 1.5084l19.537-0.67952a1.9191 1.9191 0 0 0 0.78369-2.5306c-0.38494-1.1154-1.36-1.7906-2.1779-1.5084l-1.3284 0.67187 2.8329-48.924-0.31439-8.9363 0.64769-10.138 2.9946-45.601 11.335 56.076 11.578 60.741a2.1298 2.1298 0 0 0 1.4362 3.7086h15.809a2.1364 2.1364 0 0 0 0-4.2729z"
      fill="#2f2e41" />
   <path
      d="m351.8 251.76a6.7071 6.7071 0 0 0-4.6054-9.1957l-30.17-53.118-11.282 9.245 33.203 49.307a6.7434 6.7434 0 0 0 12.854 3.7625z"
      fill="#ffb6b6" />
   <path
      d="m295.8 164.99s2.5811-2.4274 6.5388 3.9516c3.1684 5.1069 25.608 34.553 27.974 42.555a5.269 5.269 0 0 1 5.3225 3.6604l-15.978 6.7444c-3.5643-1.6539-5.2247-4.7478-4.3707-6.0332l-6.2822-8.8522-23.554-27.192 8.4522-13.112z"
      fill="#6c63ff" />
   <path
      d="m415.2 452.9a1.5486 1.5486 0 0 1-1.5533 1.5532h-412.05a1.5532 1.5532 0 0 1 0-3.1064h412.05a1.5487 1.5487 0 0 1 1.5533 1.5532z"
      fill="#ccc" />
   <path
      d="m263.1 117.32c-5.3791 10.602-1.8652 22.883 8.1166 29.341 10.794 6.9834 24.808 5.4543 29.341-8.1166 5.0479-15.113 0.90092-21.596-8.1166-29.341-10.568-9.0767-23.529-3.3389-29.341 8.1166z"
      fill="#2f2e41" />
   <path d="m289.58 140.93a17.031 17.031 0 0 1-27.1-20.635l0.1478-0.19411a17.031 17.031 0 0 1 26.948 20.826z"
      fill="#ffb6b6" />
   <path
      d="m257.89 115.6a23.27 23.27 0 0 0 9.8233 5.5661 10.177 10.177 0 0 1 2.5888-2.1454 10.887 10.887 0 0 0-0.95006 3.074c1.642 3.4078 8.3486 5.857 14.758 8.3625l8.4898-14.983-11.237-6.3674c-9.0295-6.2426-19.659-3.5783-23.473 6.4932z"
      fill="#2f2e41" />
   <path
      d="m299 109.22a5.2338 5.2338 0 0 1 4.9481 0.72258 11.028 11.028 0 0 1 3.23 3.9288 28.169 28.169 0 0 1 2.9287 7.982c0.48471 2.4167 0.40266 5.3385-1.7657 6.5997-1.8093 1.0524-4.3962 0.38974-6.0591-1.0147a13.461 13.461 0 0 1-3.411-5.3058 18.752 18.752 0 0 0-3.0207-5.5262l1.4981 0.6994a13.092 13.092 0 0 1-0.6521-4.4596 4.319 4.319 0 0 1 2.3037-3.6261z"
      fill="#2f2e41" />
   <path
      d="m279.57 111.18 12.056 6.8312a14.128 14.128 0 0 1 5.3269 19.256 21.929 21.929 0 0 1-28.039 9.2018l11.016-9.7251-14.945 7.6144-3.1908-1.808c16.028-2.9142 19.119-15.487 17.776-31.371z"
      fill="#2f2e41" />
   <g transform="matrix(1.4841 0 0 1.4841 126.44 0)">
      <path
         d="m55.246 5.7231c2.2472 0 4.3111 0.53889 6.1914 1.6167 1.9033 1.0548 3.4053 2.511 4.506 4.3684 1.1008 1.8345 1.6511 3.8754 1.6511 6.1227 0 2.2472-0.5503 4.2881-1.6511 6.1226-1.1007 1.8116-2.6027 3.2448-4.506 4.2997-1.8803 1.0319-3.9442 1.5478-6.1914 1.5478h-9.5624v-24.078zm0 19.813c1.4446 0 2.7632-0.3325 3.9556-0.9975 1.1925-0.688 2.1326-1.6281 2.8206-2.8206 0.7109-1.1924 1.0663-2.4995 1.0663-3.9212 0-1.4218-0.3554-2.7289-1.0663-3.9213-0.688-1.2154-1.6281-2.167-2.8206-2.855-1.1924-0.6879-2.511-1.0319-3.9556-1.0319h-5.0564v15.547z" />
      <path
         d="m78.518 12.155c1.6511 0 3.1301 0.4128 4.4372 1.2383 1.33 0.8026 2.362 1.8919 3.0958 3.2678 0.7338 1.3758 1.1007 2.9008 1.1007 4.5748 0 0.5503-0.0459 1.0548-0.1376 1.5134h-13.277c0.344 1.2154 0.9517 2.167 1.8231 2.855 0.8714 0.665 1.9835 0.9975 3.3365 0.9975 0.8255 0 1.6166-0.1834 2.3734-0.5503 0.7796-0.367 1.3644-0.837 1.7542-1.4103l3.2677 1.9262c-0.8026 1.1924-1.8459 2.1097-3.1301 2.7518-1.2612 0.6191-2.7174 0.9287-4.3684 0.9287-1.8345 0-3.4626-0.3898-4.8844-1.1695-1.4217-0.7797-2.5224-1.8574-3.3021-3.2333-0.7567-1.3759-1.1351-2.9238-1.1351-4.6436 0-1.697 0.3784-3.2334 1.1351-4.6092 0.7797-1.3759 1.8574-2.4537 3.2333-3.2334 1.3759-0.8026 2.9352-1.2039 4.678-1.2039zm4.6436 7.2578c-0.1834-1.1007-0.6994-1.9606-1.5479-2.5798-0.8255-0.642-1.8689-0.9631-3.1301-0.9631-0.8714 0-1.674 0.1605-2.4078 0.4816-0.7108 0.321-1.2841 0.7567-1.7198 1.3071-0.4357 0.5503-0.665 1.1351-0.688 1.7542z" />
      <path
         d="m98.777 30.248c-2.3619 0-4.3455-0.5274-5.9507-1.5823-1.6052-1.0548-2.7288-2.4766-3.3709-4.2652l3.7837-2.2358c0.9402 2.4536 2.8206 3.6805 5.6411 3.6805 1.2608 0 2.2358-0.2981 2.9238-0.8944 0.688-0.5962 1.032-1.2841 1.032-2.0638 0-0.7796-0.378-1.4103-1.135-1.8918-0.734-0.4816-2.0526-0.9975-3.9559-1.5479-1.4905-0.4586-2.7517-0.9516-3.7837-1.4791-1.0319-0.5503-1.8803-1.2841-2.5453-2.2014-0.6421-0.9172-0.9632-2.0753-0.9632-3.4741 0-1.4217 0.3555-2.66 1.0664-3.7148 0.7108-1.0778 1.651-1.8918 2.8205-2.4422 1.1924-0.57329 2.4881-0.85993 3.8869-0.85993 1.9493 0 3.6343 0.47009 5.0563 1.4103 1.445 0.91725 2.557 2.2129 3.337 3.8869l-3.853 2.2014c-0.894-2.0409-2.408-3.0613-4.5403-3.0613-0.9631 0-1.7543 0.25224-2.3734 0.75674-0.6192 0.5045-0.9287 1.1007-0.9287 1.7886 0 0.5275 0.1375 0.9746 0.4127 1.3415 0.2981 0.3669 0.7568 0.6994 1.3759 0.9975 0.6421 0.2981 1.5708 0.6307 2.7862 0.9976 1.5826 0.5044 2.9126 1.0319 3.9896 1.5822 1.101 0.5504 2.007 1.3186 2.718 2.3046 0.734 0.9631 1.1 2.1785 1.1 3.6461 0 1.4447-0.366 2.7059-1.1 3.7837s-1.754 1.9033-3.062 2.4766c-1.284 0.5732-2.74 0.8599-4.368 0.8599z" />
      <path
         d="m117.95 30.283c-1.628 0-3.141-0.4013-4.54-1.2039-1.376-0.8255-2.477-1.9262-3.302-3.3021-0.803-1.3988-1.204-2.9123-1.204-4.5404 0-1.6282 0.401-3.1302 1.204-4.506 0.825-1.3989 1.926-2.4996 3.302-3.3022 1.399-0.8255 2.912-1.2383 4.54-1.2383s3.13 0.4128 4.506 1.2383c1.399 0.8026 2.5 1.9033 3.302 3.3022 0.826 1.3758 1.239 2.8778 1.239 4.506 0 1.6281-0.413 3.1416-1.239 4.5404-0.802 1.3759-1.903 2.4766-3.302 3.3021-1.376 0.8026-2.878 1.2039-4.506 1.2039zm-0.034-4.2652c0.871 0 1.674-0.2064 2.408-0.6192 0.734-0.4357 1.318-1.0204 1.754-1.7542s0.654-1.5364 0.654-2.4078-0.218-1.674-0.654-2.4078-1.02-1.3186-1.754-1.7543-1.537-0.6535-2.408-0.6535-1.674 0.2178-2.408 0.6535-1.318 1.0205-1.754 1.7543c-0.413 0.7338-0.619 1.5364-0.619 2.4078s0.206 1.674 0.619 2.4078c0.436 0.7338 1.02 1.3185 1.754 1.7542 0.734 0.4128 1.537 0.6192 2.408 0.6192z" />
      <path d="m4.8828e-4 0v9.2084l24.236 13.464-24.236 14.167h19.969c6.3807 0 11.549-4.5333 11.549-10.126v-8.2903z"
         fill="url(#d)" />
      <path d="m4.8828e-4 0 31.518 18.422v-8.296c0-5.593-5.1737-10.126-11.549-10.126z" fill="url(#e)" />
      <path d="m16.581 18.422-16.581 9.2084v9.2084l24.236-14.167z" fill="url(#f)" />
   </g>
</svg>